<svg width="25" height="23" viewBox="0 0 25 23" fill="none" xmlns="http://www.w3.org/2000/svg">
<g clip-path="url(#clip0_1_6566)">
<path d="M12.4844 2.5C13.2261 2.5 13.9511 2.71993 14.5678 3.13199C15.1845 3.54404 15.6651 4.12971 15.9489 4.81494C16.2328 5.50016 16.307 6.25416 16.1623 6.98159C16.0177 7.70902 15.6605 8.3772 15.1361 8.90165C14.6116 9.4261 13.9434 9.78325 13.216 9.92795C12.4885 10.0726 11.7345 9.99838 11.0493 9.71455C10.3641 9.43072 9.77841 8.95007 9.36636 8.33339C8.9543 7.7167 8.73438 6.99168 8.73438 6.25C8.73438 5.25544 9.12947 4.30161 9.83273 3.59835C10.536 2.89509 11.4898 2.5 12.4844 2.5ZM12.4844 1C11.446 1 10.431 1.30791 9.56764 1.88478C8.70428 2.46166 8.03137 3.2816 7.63401 4.24091C7.23665 5.20022 7.13268 6.25582 7.33525 7.27422C7.53782 8.29262 8.03784 9.22808 8.77207 9.96231C9.5063 10.6965 10.4418 11.1966 11.4602 11.3991C12.4786 11.6017 13.5342 11.4977 14.4935 11.1004C15.4528 10.703 16.2727 10.0301 16.8496 9.16674C17.4265 8.30339 17.7344 7.28835 17.7344 6.25C17.7344 4.85761 17.1813 3.52226 16.1967 2.53769C15.2121 1.55312 13.8768 1 12.4844 1ZM19.9844 22H18.4844V18.25C18.4844 17.7575 18.3874 17.2699 18.1989 16.8149C18.0105 16.36 17.7343 15.9466 17.3861 15.5983C17.0378 15.2501 16.6244 14.9739 16.1695 14.7855C15.7145 14.597 15.2269 14.5 14.7344 14.5H10.2344C9.23981 14.5 8.28599 14.8951 7.58273 15.5983C6.87947 16.3016 6.48438 17.2554 6.48438 18.25V22H4.98438V18.25C4.98438 16.8576 5.53749 15.5223 6.52206 14.5377C7.50663 13.5531 8.84198 13 10.2344 13H14.7344C16.1268 13 17.4621 13.5531 18.4467 14.5377C19.4313 15.5223 19.9844 16.8576 19.9844 18.25V22Z" fill="#808080"/>
</g>
<defs>
<clipPath id="clip0_1_6566">
<rect width="16" height="22" fill="white" transform="translate(4.48438 0.5)"/>
</clipPath>
</defs>
</svg>
