<svg width="18" height="18" viewBox="0 0 18 18" fill="none" xmlns="http://www.w3.org/2000/svg">
<g id="all.svg">
<path id="Vector" d="M15 2H3C2.73478 2 2.48043 2.10536 2.29289 2.29289C2.10536 2.48043 2 2.73478 2 3V15C2.00026 15.2651 2.10571 15.5193 2.29319 15.7068C2.48066 15.8943 2.73486 15.9997 3 16H15C15.2651 15.9997 15.5193 15.8943 15.7068 15.7068C15.8943 15.5193 15.9997 15.2651 16 15V3C15.9997 2.73486 15.8943 2.48066 15.7068 2.29319C15.5193 2.10571 15.2651 2.00026 15 2ZM15 8H12.5V3H15V8ZM9 3H11.5V8H9V3ZM8 3V11H3V3H8ZM3 12H8V15H3V12ZM9 15V9H15V15H9Z" fill="black" fill-opacity="0.8"/>
</g>
</svg>
