<svg width="19" height="16" viewBox="0 0 19 16" fill="none" xmlns="http://www.w3.org/2000/svg">
<path d="M15.137 2.3208C14.7535 1.9005 14.2981 1.56748 13.7972 1.34084C13.2962 1.11419 12.7595 0.998372 12.2177 1.00002C11.6759 1.00166 11.1398 1.12074 10.64 1.35042C10.1402 1.58011 9.68653 1.91589 9.30508 2.33851C8.52575 1.50967 7.47983 1.05271 6.39517 1.06716C5.31052 1.08162 4.275 1.56633 3.51421 2.4157C2.75342 3.26506 2.32899 4.41027 2.33338 5.60185C2.33777 6.79342 2.77063 7.93482 3.53765 8.77739L9.12907 14.9195C9.15229 14.945 9.17986 14.9653 9.21021 14.9791C9.24056 14.9929 9.27308 15 9.30593 15C9.33878 15 9.37131 14.9929 9.40165 14.9791C9.432 14.9653 9.45957 14.945 9.48279 14.9195L15.137 8.70842C15.9034 7.85862 16.3333 6.7108 16.3333 5.51461C16.3333 4.31842 15.9034 3.1706 15.137 2.3208ZM14.7833 8.31988L9.30592 14.3367L3.89133 8.38885C3.21405 7.64483 2.83356 6.63573 2.83357 5.58355C2.83359 4.53136 3.2141 3.52228 3.89141 2.77828C4.56871 2.03428 5.48732 1.61632 6.44516 1.61634C7.40299 1.61635 8.32159 2.03435 8.99888 2.77837L9.1248 2.91652C9.17092 2.96738 9.23334 2.99634 9.29868 2.99719C9.36402 2.99805 9.42706 2.97072 9.47426 2.92108L9.67591 2.70936C10.0113 2.34097 10.4094 2.04874 10.8476 1.84937C11.2857 1.65 11.7554 1.54738 12.2296 1.54738C12.7039 1.54738 13.1735 1.65 13.6117 1.84937C14.0499 2.04874 14.448 2.34097 14.7833 2.70936C15.1187 3.07775 15.3847 3.51509 15.5662 3.99642C15.7477 4.47775 15.8411 4.99363 15.8411 5.51462C15.8411 6.0356 15.7477 6.55149 15.5662 7.03281C15.3847 7.51414 15.1187 7.95149 14.7833 8.31988Z" stroke="#191919" stroke-width="1.5"/>
</svg>
