<svg width="18" height="18" viewBox="0 0 18 18" fill="none" xmlns="http://www.w3.org/2000/svg">
<g id="calendar.svg">
<path id="Vector" d="M13.8438 3H11.8438V2H10.8438V3H6.84375V2H5.84375V3H3.84375C3.29375 3 2.84375 3.45 2.84375 4V14C2.84375 14.55 3.29375 15 3.84375 15H13.8438C14.3938 15 14.8438 14.55 14.8438 14V4C14.8438 3.45 14.3938 3 13.8438 3ZM13.8438 14H3.84375V7H13.8438V14ZM13.8438 6H3.84375V4H5.84375V5H6.84375V4H10.8438V5H11.8438V4H13.8438V6Z" fill="black" fill-opacity="0.8"/>
</g>
</svg>
