<svg width="18" height="18" viewBox="0 0 18 18" fill="none" xmlns="http://www.w3.org/2000/svg">
<g id="card.svg">
<path id="Vector" d="M7.17513 9.19589C6.93501 8.94377 6.80298 8.60777 6.80723 8.25963C6.81147 7.91149 6.95166 7.5788 7.19785 7.33261C7.44404 7.08642 7.77672 6.94624 8.12486 6.94199C8.473 6.93775 8.80901 7.06978 9.06113 7.30989L9.07813 7.32689L9.09513 7.30989C9.34725 7.06978 9.68325 6.93775 10.0314 6.94199C10.3795 6.94624 10.7122 7.08642 10.9584 7.33261C11.2046 7.5788 11.3448 7.91149 11.349 8.25963C11.3533 8.60777 11.2212 8.94377 10.9811 9.19589L9.09513 11.0799L9.07813 11.0629L9.06113 11.0799L7.17513 9.19489V9.19589Z" fill="black" fill-opacity="0.8"/>
<path id="Vector_2" fill-rule="evenodd" clip-rule="evenodd" d="M3.07812 3.66699C3.07812 3.13656 3.28884 2.62785 3.66391 2.25278C4.03898 1.87771 4.54769 1.66699 5.07812 1.66699H13.0781C13.6086 1.66699 14.1173 1.87771 14.4923 2.25278C14.8674 2.62785 15.0781 3.13656 15.0781 3.66699V14.334C15.0781 14.8644 14.8674 15.3731 14.4923 15.7482C14.1173 16.1233 13.6086 16.334 13.0781 16.334H5.07812C4.54769 16.334 4.03898 16.1233 3.66391 15.7482C3.28884 15.3731 3.07813 14.8644 3.07812 14.334V3.66699ZM5.07812 2.99999H13.0781C13.255 2.99999 13.4247 3.07027 13.5498 3.19535C13.6749 3.32044 13.7451 3.49009 13.7451 3.66699V14.334C13.7449 14.5107 13.6745 14.6801 13.5494 14.805C13.4244 14.9299 13.2549 15 13.0781 15H5.07812C4.9014 15 4.7319 14.9299 4.60684 14.805C4.48178 14.6801 4.41139 14.5107 4.41112 14.334V3.66699C4.41112 3.49009 4.4814 3.32044 4.60648 3.19535C4.73157 3.07027 4.90123 2.99999 5.07812 2.99999Z" fill="black" fill-opacity="0.8"/>
</g>
</svg>
