<svg width="15" height="16" viewBox="0 0 15 16" fill="none" xmlns="http://www.w3.org/2000/svg">
<path d="M9.49874 10.3066C9.88902 10.4454 10.3179 10.2415 10.4567 9.85123C10.5954 9.46095 10.3915 9.03208 10.0013 8.89331L9.49874 10.3066ZM7.5 8.79997H6.75C6.75 9.11732 6.94973 9.40032 7.24874 9.50664L7.5 8.79997ZM8.25 5.45482C8.25 5.0406 7.91421 4.70482 7.5 4.70482C7.08579 4.70482 6.75 5.0406 6.75 5.45482H8.25ZM10.0013 8.89331L7.75126 8.09331L7.24874 9.50664L9.49874 10.3066L10.0013 8.89331ZM8.25 8.79997V5.45482H6.75V8.79997H8.25ZM12.75 7.99997C12.75 11.1667 10.3546 13.65 7.5 13.65V15.15C11.2728 15.15 14.25 11.9025 14.25 7.99997H12.75ZM7.5 13.65C4.64537 13.65 2.25 11.1667 2.25 7.99997H0.75C0.75 11.9025 3.72722 15.15 7.5 15.15V13.65ZM2.25 7.99997C2.25 4.83323 4.64537 2.34998 7.5 2.34998V0.849976C3.72722 0.849976 0.75 4.09747 0.75 7.99997H2.25ZM7.5 2.34998C10.3546 2.34998 12.75 4.83323 12.75 7.99997H14.25C14.25 4.09747 11.2728 0.849976 7.5 0.849976V2.34998Z" fill="#FFE055"/>
</svg>
