<svg width="18" height="18" viewBox="0 0 18 18" fill="none" xmlns="http://www.w3.org/2000/svg">
<g id="dark-bright.svg" clip-path="url(#clip0_133_1739)">
<g id="Clip path group">
<mask id="mask0_133_1739" style="mask-type:luminance" maskUnits="userSpaceOnUse" x="0" y="1" width="17" height="16">
<g id="y2afhanhqa">
<path id="Vector" d="M0.8125 1H16.8125V17H0.8125V1Z" fill="white"/>
</g>
</mask>
<g mask="url(#mask0_133_1739)">
<g id="Group">
<path id="Vector_2" d="M9.97951 5.50001C9.97951 5.80952 9.85656 6.10635 9.6377 6.3252C9.41885 6.54406 9.12202 6.66701 8.81251 6.66701C8.503 6.66701 8.20617 6.54406 7.98731 6.3252C7.76846 6.10635 7.64551 5.80952 7.64551 5.50001C7.64551 5.1905 7.76846 4.89367 7.98731 4.67481C8.20617 4.45596 8.503 4.33301 8.81251 4.33301C9.12202 4.33301 9.41885 4.45596 9.6377 4.67481C9.85656 4.89367 9.97951 5.1905 9.97951 5.50001Z" fill="black" fill-opacity="0.8"/>
<path id="Vector_3" d="M8.8125 1C6.69077 1 4.65594 1.84285 3.15565 3.34315C1.65535 4.84344 0.8125 6.87827 0.8125 9C0.8125 11.1217 1.65535 13.1566 3.15565 14.6569C4.65594 16.1571 6.69077 17 8.8125 17C10.9342 17 12.9691 16.1571 14.4694 14.6569C15.9696 13.1566 16.8125 11.1217 16.8125 9C16.8125 6.87827 15.9696 4.84344 14.4694 3.34315C12.9691 1.84285 10.9342 1 8.8125 1ZM1.8125 9C1.8125 7.14348 2.55 5.36301 3.86275 4.05025C5.17551 2.7375 6.95598 2 8.8125 2C9.74076 2 10.631 2.36875 11.2874 3.02513C11.9438 3.6815 12.3125 4.57174 12.3125 5.5C12.3125 6.42826 11.9438 7.3185 11.2874 7.97487C10.631 8.63125 9.74076 9 8.8125 9C8.35287 9 7.89775 9.09053 7.47311 9.26642C7.04847 9.44231 6.66263 9.70012 6.33763 10.0251C6.01262 10.3501 5.75481 10.736 5.57892 11.1606C5.40303 11.5852 5.3125 12.0404 5.3125 12.5C5.3125 12.9596 5.40303 13.4148 5.57892 13.8394C5.75481 14.264 6.01262 14.6499 6.33763 14.9749C6.66263 15.2999 7.04847 15.5577 7.47311 15.7336C7.89775 15.9095 8.35287 16 8.8125 16C6.95598 16 5.17551 15.2625 3.86275 13.9497C2.55 12.637 1.8125 10.8565 1.8125 9ZM8.8125 13.667C8.65925 13.667 8.5075 13.6368 8.36591 13.5782C8.22432 13.5195 8.09567 13.4336 7.98731 13.3252C7.87894 13.2168 7.79298 13.0882 7.73433 12.9466C7.67569 12.805 7.6455 12.6533 7.6455 12.5C7.6455 12.3467 7.67569 12.195 7.73433 12.0534C7.79298 11.9118 7.87894 11.7832 7.98731 11.6748C8.09567 11.5664 8.22432 11.4805 8.36591 11.4218C8.5075 11.3632 8.65925 11.333 8.8125 11.333C9.12201 11.333 9.41884 11.456 9.63769 11.6748C9.85655 11.8937 9.9795 12.1905 9.9795 12.5C9.9795 12.8095 9.85655 13.1063 9.63769 13.3252C9.41884 13.544 9.12201 13.667 8.8125 13.667Z" fill="black" fill-opacity="0.8"/>
</g>
</g>
</g>
</g>
<defs>
<clipPath id="clip0_133_1739">
<rect width="17" height="17" fill="white" transform="translate(0.3125 0.5)"/>
</clipPath>
</defs>
</svg>
