<svg xmlns="http://www.w3.org/2000/svg" width="16" height="16" viewBox="0 0 16 16" fill="none">
<g opacity="0.8" clip-path="url(#clip0_87_86)">
<path d="M7.99506 1.19141C4.24087 1.19141 1.19183 4.24044 1.19183 7.99463C1.19183 11.7488 4.24087 14.7979 7.99506 14.7979C11.7493 14.7979 14.7983 11.7488 14.7983 7.99463C14.7983 4.24044 11.7493 1.19141 7.99506 1.19141Z" fill="black" fill-opacity="0.38"/>
<path d="M7.99503 0C3.58535 0 0 3.58535 0 7.99503C0 12.4047 3.58535 15.9901 7.99503 15.9901C12.4047 15.9901 15.9901 12.4047 15.9901 7.99503C15.9901 3.58535 12.4146 0 7.99503 0ZM7.99503 14.8082C4.24084 14.8082 1.19181 11.7592 1.19181 8.00497C1.19181 4.25078 4.24084 1.19181 7.99503 1.19181C11.7492 1.19181 14.7983 4.24084 14.7983 7.99503C14.7983 11.7492 11.7492 14.8082 7.99503 14.8082Z" fill="black" fill-opacity="0.3"/>
<path d="M8.1937 11.8585C6.25701 11.8585 4.96589 10.7462 4.57855 9.04785C4.75732 11.1037 6.11797 12.4942 8.28308 12.5041C10.2992 12.4942 11.5705 11.3123 11.6599 9.58416H11.4612C11.1335 10.9647 9.95161 11.8585 8.1937 11.8585Z" fill="black" fill-opacity="0.2"/>
<path d="M9.62385 6.88259C9.49474 6.12778 9.00808 5.61133 8.22348 5.61133C7.23031 5.62126 6.56488 6.45552 6.56488 7.89562C6.56488 8.25317 6.60461 8.57098 6.67413 8.84907C6.6642 8.74975 6.6642 8.65043 6.6642 8.54119C6.6642 7.10109 7.31969 6.26682 8.32279 6.25689C9.1074 6.26682 9.59405 6.78327 9.72317 7.52815H11.6698C11.6599 7.28979 11.6201 7.07129 11.5705 6.85279C11.5705 6.86272 11.5705 6.87266 11.5705 6.88259H9.62385Z" fill="black" fill-opacity="0.2"/>
<path d="M8.19369 11.8583C9.95161 11.8483 11.1335 10.9545 11.4811 9.58391C11.5308 9.37535 11.5605 9.16678 11.5804 8.93835H9.62386C9.49475 9.74282 8.9485 10.1997 8.22349 10.1997C7.45875 10.1997 6.90257 9.71302 6.68407 8.83903C6.61455 8.56094 6.57482 8.24313 6.57482 7.88559C6.57482 6.44549 7.23032 5.61122 8.23342 5.60129C9.01803 5.61122 9.50468 6.12767 9.63379 6.87255H11.5804C11.5804 6.86262 11.5804 6.85269 11.5804 6.84276C11.4811 5.11464 10.1602 3.98242 8.20363 3.98242C5.89947 3.98242 4.4693 5.58143 4.4693 7.90545C4.4693 8.30272 4.50903 8.68012 4.58848 9.03767C4.96589 10.7459 6.25701 11.8583 8.19369 11.8583Z" fill="#AAAAAA"/>
</g>
<defs>
<clipPath id="clip0_87_86">
<rect width="16" height="16" fill="white"/>
</clipPath>
</defs>
</svg>