<svg width="12" height="12" viewBox="0 0 12 12" fill="none" xmlns="http://www.w3.org/2000/svg">
<g clip-path="url(#clip0_1_3527)">
<path d="M12 0H0V12H12V0Z" fill="white"/>
<path d="M11.6025 5.8725C11.1615 4.73162 10.3958 3.74498 9.40007 3.03453C8.40438 2.32408 7.22233 1.92096 6.00002 1.875C4.77772 1.92096 3.59567 2.32408 2.59997 3.03453C1.60428 3.74498 0.838584 4.73162 0.397524 5.8725C0.367736 5.95489 0.367736 6.04511 0.397524 6.1275C0.838584 7.26838 1.60428 8.25502 2.59997 8.96547C3.59567 9.67592 4.77772 10.079 6.00002 10.125C7.22233 10.079 8.40438 9.67592 9.40007 8.96547C10.3958 8.25502 11.1615 7.26838 11.6025 6.1275C11.6323 6.04511 11.6323 5.95489 11.6025 5.8725ZM6.00002 9.375C4.01252 9.375 1.91252 7.90125 1.15127 6C1.91252 4.09875 4.01252 2.625 6.00002 2.625C7.98752 2.625 10.0875 4.09875 10.8488 6C10.0875 7.90125 7.98752 9.375 6.00002 9.375Z" fill="black" fill-opacity="0.5"/>
<path d="M6 3.75C5.55499 3.75 5.11998 3.88196 4.74997 4.12919C4.37996 4.37643 4.09157 4.72783 3.92127 5.13896C3.75097 5.5501 3.70642 6.0025 3.79323 6.43895C3.88005 6.87541 4.09434 7.27632 4.40901 7.59099C4.72368 7.90566 5.12459 8.11995 5.56105 8.20677C5.99751 8.29358 6.4499 8.24903 6.86104 8.07873C7.27217 7.90843 7.62357 7.62004 7.87081 7.25003C8.11804 6.88002 8.25 6.44501 8.25 6C8.25 5.40326 8.01295 4.83097 7.59099 4.40901C7.16903 3.98705 6.59674 3.75 6 3.75ZM6 7.5C5.70333 7.5 5.41332 7.41203 5.16665 7.2472C4.91997 7.08238 4.72771 6.84811 4.61418 6.57402C4.50065 6.29994 4.47095 5.99834 4.52882 5.70736C4.5867 5.41639 4.72956 5.14912 4.93934 4.93934C5.14912 4.72956 5.41639 4.5867 5.70737 4.52882C5.99834 4.47094 6.29994 4.50065 6.57403 4.61418C6.84812 4.72771 7.08238 4.91997 7.24721 5.16664C7.41203 5.41332 7.5 5.70333 7.5 6C7.5 6.39782 7.34197 6.77936 7.06066 7.06066C6.77936 7.34196 6.39783 7.5 6 7.5Z" fill="black" fill-opacity="0.5"/>
</g>
<defs>
<clipPath id="clip0_1_3527">
<rect width="12" height="12" fill="white"/>
</clipPath>
</defs>
</svg>
