<svg width="25" height="21" viewBox="0 0 25 21" fill="none" xmlns="http://www.w3.org/2000/svg">
<g clip-path="url(#clip0_1_6561)">
<path d="M16.9937 2.5C17.5398 2.49954 18.0804 2.6081 18.584 2.81931C19.0875 3.03052 19.544 3.34014 19.9263 3.73C20.7141 4.52979 21.1556 5.60737 21.1556 6.73C21.1556 7.85264 20.7141 8.93022 19.9263 9.73L12.1562 17.5975L4.38626 9.73C3.59845 8.93022 3.15686 7.85264 3.15686 6.73C3.15686 5.60737 3.59845 4.52979 4.38626 3.73C4.76883 3.34042 5.2252 3.03096 5.7287 2.81972C6.2322 2.60848 6.77275 2.49968 7.31876 2.49968C7.86478 2.49968 8.40533 2.60848 8.90883 2.81972C9.41233 3.03096 9.8687 3.34042 10.2513 3.73L12.1562 5.68L14.0538 3.745C14.435 3.35049 14.8917 3.0369 15.3969 2.82298C15.902 2.60906 16.4451 2.49921 16.9937 2.5ZM16.9937 1C16.2479 0.99937 15.5095 1.14764 14.8218 1.43613C14.1341 1.72461 13.511 2.1475 12.9888 2.68L12.1562 3.52L11.3237 2.68C10.801 2.14846 10.1776 1.72631 9.49001 1.43815C8.8024 1.14998 8.06431 1.00157 7.31876 1.00157C6.57322 1.00157 5.83513 1.14998 5.14752 1.43815C4.45992 1.72631 3.83655 2.14846 3.31376 2.68C2.25017 3.76272 1.65424 5.21977 1.65424 6.7375C1.65424 8.25523 2.25017 9.71228 3.31376 10.795L12.1562 19.75L20.9988 10.795C22.0624 9.71228 22.6583 8.25523 22.6583 6.7375C22.6583 5.21977 22.0624 3.76272 20.9988 2.68C20.4762 2.14818 19.8527 1.72573 19.1651 1.4373C18.4775 1.14886 17.7394 1.00021 16.9937 1Z" fill="#808080"/>
</g>
<defs>
<clipPath id="clip0_1_6561">
<rect width="22" height="19" fill="white" transform="translate(1.15625 1)"/>
</clipPath>
</defs>
</svg>
