<svg width="25" height="21" viewBox="0 0 25 21" fill="none" xmlns="http://www.w3.org/2000/svg">
<g clip-path="url(#clip0_1_6548)">
<path d="M12.959 1.16047C12.8259 1.05671 12.662 1.00037 12.4932 1.00037C12.3245 1.00037 12.1606 1.05671 12.0275 1.16047L1.25 9.56422L2.18225 10.7432L3.5 9.71572V19C3.50079 19.3976 3.65908 19.7786 3.94022 20.0598C4.22135 20.3409 4.60242 20.4992 5 20.5H20C20.3976 20.4992 20.7787 20.3409 21.0598 20.0598C21.3409 19.7786 21.4992 19.3976 21.5 19V9.72247L22.8177 10.75L23.75 9.57097L12.959 1.16047ZM14 19H11V13H14V19ZM15.5 19V13C15.4996 12.6023 15.3414 12.221 15.0602 11.9397C14.779 11.6585 14.3977 11.5004 14 11.5H11C10.6023 11.5004 10.221 11.6585 9.93978 11.9397C9.65856 12.221 9.5004 12.6023 9.5 13V19H5V8.54647L12.5 2.70397L20 8.55397V19H15.5Z" fill="#8986FF"/>
</g>
<defs>
<clipPath id="clip0_1_6548">
<rect width="24" height="20" fill="white" transform="translate(0.5 0.5)"/>
</clipPath>
</defs>
</svg>
