<svg width="18" height="16" viewBox="0 0 18 16" fill="none" xmlns="http://www.w3.org/2000/svg">
<mask id="mask0_1_554" style="mask-type:luminance" maskUnits="userSpaceOnUse" x="1" y="0" width="16" height="16">
<path d="M1 0H17V16H1V0Z" fill="white"/>
</mask>
<g mask="url(#mask0_1_554)">
<path d="M8.99522 1.19202C5.24002 1.19202 2.19202 4.24002 2.19202 7.99522C2.19202 11.7504 5.24082 14.7984 8.99522 14.7984C12.7496 14.7984 15.7984 11.7488 15.7984 7.99522C15.7984 4.24082 12.7488 1.19202 8.99522 1.19202Z" fill="#FBB701"/>
<path d="M8.9952 0C4.5856 0 1 3.5856 1 7.9952C1 12.4048 4.5856 15.9904 8.9952 15.9904C13.4048 15.9904 16.9904 12.4048 16.9904 7.9952C16.9904 3.5856 13.4144 0 8.9952 0ZM8.9952 14.808C5.24 14.808 2.192 11.76 2.192 8.0048C2.192 4.2496 5.24 1.192 8.9952 1.192C12.7504 1.192 15.7984 4.2408 15.7984 7.9952C15.7984 11.7496 12.7488 14.808 8.9952 14.808Z" fill="#FFDF59"/>
<path d="M9.19357 11.8584C7.25757 11.8584 5.96557 10.7464 5.57837 9.04801C5.75757 11.104 7.11757 12.4944 9.28237 12.504C11.2992 12.4944 12.5704 11.312 12.66 9.58401H12.4616C12.1336 10.9648 10.952 11.8584 9.19357 11.8584ZM10.624 6.88321C10.4944 6.12801 10.008 5.61121 9.22397 5.61121C8.23037 5.62161 7.56477 6.45601 7.56477 7.89601C7.56477 8.25361 7.60477 8.57121 7.67437 8.84961C7.66397 8.75041 7.66397 8.65121 7.66397 8.54161C7.66397 7.10161 8.31997 6.26721 9.32237 6.25761C10.1072 6.26721 10.5944 6.78401 10.7224 7.52881H12.6696C12.6575 7.30089 12.6243 7.07458 12.5704 6.85281V6.88321H10.624Z" fill="#D3950B"/>
<path d="M9.1936 11.8584C10.9512 11.8488 12.1336 10.9544 12.4816 9.58401C12.5304 9.37602 12.5608 9.16722 12.58 8.93842H10.624C10.4944 9.74322 9.9488 10.2 9.224 10.2C8.4584 10.2 7.9024 9.71362 7.684 8.84002C7.60861 8.52756 7.5718 8.20703 7.5744 7.88562C7.5744 6.44562 8.2304 5.61202 9.2336 5.60162C10.0176 5.61202 10.5048 6.12802 10.6336 6.87362H12.58V6.84322C12.4808 5.11522 11.16 3.98322 9.204 3.98322C6.9 3.98322 5.4696 5.58162 5.4696 7.90562C5.4696 8.30322 5.5096 8.68082 5.5888 9.03842C5.9656 10.7464 7.2568 11.8584 9.1936 11.8584Z" fill="#FFE055"/>
</g>
</svg>
