<svg width="18" height="16" viewBox="0 0 18 16" fill="none" xmlns="http://www.w3.org/2000/svg">
<path d="M2.78058 5.78417L7.78058 1.93802C8.49948 1.38501 9.50052 1.38501 10.2194 1.93802L15.2194 5.78417C15.7116 6.16276 16 6.74848 16 7.36942V14C16 14.5523 15.5523 15 15 15H11.6471C11.0948 15 10.6471 14.5523 10.6471 14V11.6214C10.6471 10.7118 9.90965 9.97436 9 9.97436C8.09035 9.97436 7.35294 10.7118 7.35294 11.6214V14C7.35294 14.5523 6.90523 15 6.35294 15H3C2.44772 15 2 14.5523 2 14V7.36942C2 6.74848 2.28841 6.16276 2.78058 5.78417Z" stroke="white" stroke-width="1.5" stroke-linecap="round"/>
</svg>
