<svg width="37" height="59" viewBox="0 0 37 59" fill="none" xmlns="http://www.w3.org/2000/svg">
<path fill-rule="evenodd" clip-rule="evenodd" d="M36.0813 57.4474V0H0V57.4474L18.0407 43.2976L36.0813 57.4474Z" fill="#FF001F"/>
<path d="M7.16516 21.5156H8.6886V25.1133H12.6378V21.5156H14.173V30H12.6378V26.3906H8.6886V30H7.16516V21.5156ZM23.1536 25.7578C23.1536 26.6523 22.9856 27.4277 22.6497 28.084C22.3177 28.7402 21.8548 29.2441 21.261 29.5957C20.6712 29.9434 20.0052 30.1172 19.263 30.1172C18.5169 30.1172 17.8489 29.9434 17.2591 29.5957C16.6692 29.2441 16.2063 28.7402 15.8704 28.084C15.5384 27.4238 15.3723 26.6484 15.3723 25.7578C15.3723 24.8633 15.5384 24.0879 15.8704 23.4316C16.2063 22.7715 16.6692 22.2676 17.2591 21.9199C17.8489 21.5723 18.5169 21.3984 19.263 21.3984C20.0052 21.3984 20.6712 21.5742 21.261 21.9258C21.8548 22.2734 22.3177 22.7754 22.6497 23.4316C22.9856 24.0879 23.1536 24.8633 23.1536 25.7578ZM16.9075 25.7578C16.9075 26.3906 17.0052 26.9316 17.2005 27.3809C17.3997 27.8301 17.677 28.1699 18.0325 28.4004C18.388 28.6309 18.7981 28.7461 19.263 28.7461C19.7317 28.7461 20.1419 28.6309 20.4934 28.4004C20.8489 28.1699 21.1243 27.8301 21.3196 27.3809C21.5188 26.9316 21.6184 26.3906 21.6184 25.7578C21.6184 25.125 21.5188 24.584 21.3196 24.1348C21.1243 23.6855 20.8489 23.3457 20.4934 23.1152C20.1419 22.8848 19.7317 22.7695 19.263 22.7695C18.7981 22.7695 18.388 22.8848 18.0325 23.1152C17.677 23.3457 17.3997 23.6855 17.2005 24.1348C17.0052 24.584 16.9075 25.125 16.9075 25.7578ZM23.603 21.5156H30.3647V22.793H27.7514V30H26.228V22.793H23.603V21.5156Z" fill="white"/>
</svg>
