<svg width="22" height="20" viewBox="0 0 22 20" fill="none" xmlns="http://www.w3.org/2000/svg">
<g id="like_border_7f7f7f.svg" clip-path="url(#clip0_133_1933)">
<path id="Vector" d="M15.8376 2C16.3837 1.99954 16.9243 2.1081 17.4279 2.31931C17.9314 2.53052 18.3878 2.84014 18.7701 3.23C19.5579 4.02979 19.9995 5.10737 19.9995 6.23C19.9995 7.35264 19.5579 8.43022 18.7701 9.23L11.0001 17.0975L3.23007 9.23C2.44226 8.43022 2.00067 7.35264 2.00067 6.23C2.00067 5.10737 2.44226 4.02979 3.23007 3.23C3.61264 2.84042 4.06901 2.53096 4.57251 2.31972C5.07601 2.10848 5.61656 1.99968 6.16257 1.99968C6.70859 1.99968 7.24914 2.10848 7.75264 2.31972C8.25614 2.53096 8.71251 2.84042 9.09507 3.23L11.0001 5.18L12.8976 3.245C13.2788 2.85049 13.7356 2.5369 14.2408 2.32298C14.7459 2.10906 15.289 1.99921 15.8376 2ZM15.8376 0.500002C15.0918 0.49937 14.3534 0.647643 13.6657 0.936128C12.978 1.22461 12.3548 1.6475 11.8326 2.18L11.0001 3.02L10.1676 2.18C9.64479 1.64846 9.02142 1.22631 8.33382 0.938145C7.64621 0.649981 6.90812 0.501573 6.16257 0.501573C5.41703 0.501573 4.67894 0.649981 3.99133 0.938145C3.30373 1.22631 2.68036 1.64846 2.15757 2.18C1.09398 3.26272 0.498047 4.71977 0.498047 6.2375C0.498047 7.75523 1.09398 9.21228 2.15757 10.295L11.0001 19.25L19.8426 10.295C20.9062 9.21228 21.5021 7.75523 21.5021 6.2375C21.5021 4.71977 20.9062 3.26272 19.8426 2.18C19.32 1.64818 18.6966 1.22573 18.009 0.937298C17.3214 0.648862 16.5833 0.500207 15.8376 0.500002Z" fill="#808080"/>
</g>
<defs>
<clipPath id="clip0_133_1933">
<rect width="22" height="19" fill="white" transform="translate(0 0.5)"/>
</clipPath>
</defs>
</svg>
