<svg width="37" height="59" viewBox="0 0 37 59" fill="none" xmlns="http://www.w3.org/2000/svg">
<path fill-rule="evenodd" clip-rule="evenodd" d="M36.0813 57.4474V0H0V57.4474L18.0407 43.2976L36.0813 57.4474Z" fill="#FF001F"/>
<path d="M12.7578 21.5156V30H11.3984L7.37891 24.1992H7.30859V30H5.78516V21.5156H7.16797L11.1641 27.3164H11.2461V21.5156H12.7578ZM14.1681 30V21.5156H19.6877V22.793H15.6916V25.1133H19.3947V26.3906H15.6916V28.7109H19.7111V30H14.1681ZM22.7855 30L20.3948 21.5156H22.0355L23.5706 27.7617H23.6527L25.2816 21.5156H26.7816L28.4222 27.7734H28.4925L30.0277 21.5156H31.6683L29.2777 30H27.7659L26.0667 24.0352H26.0081L24.2972 30H22.7855Z" fill="white"/>
</svg>
