<svg width="24" height="24" viewBox="0 0 24 24" fill="none" xmlns="http://www.w3.org/2000/svg">
<rect width="24" height="24" fill="white"/>
<path d="M19.5 4.5V6.1275L4.22996 8.9025C3.88052 8.96639 3.5651 9.15223 3.33985 9.42692C3.11461 9.7016 2.99416 10.0473 2.99996 10.4025V13.6575C2.99416 14.0127 3.11461 14.3584 3.33985 14.6331C3.5651 14.9078 3.88052 15.0936 4.22996 15.1575L5.99996 15.42V18C5.99996 18.3978 6.15799 18.7794 6.4393 19.0607C6.7206 19.342 7.10213 19.5 7.49996 19.5H13.5C13.8978 19.5 14.2793 19.342 14.5606 19.0607C14.8419 18.7794 15 18.3978 15 18V17.055L19.5 17.8725V19.5H21V4.5H19.5ZM13.5 18H7.49996V15.6975L13.5 16.785V18ZM4.49996 13.6275V10.3725L19.5 7.65V16.35L4.49996 13.6275Z" fill="black" fill-opacity="0.88"/>
</svg>
