<svg width="24" height="24" viewBox="0 0 24 24" fill="none" xmlns="http://www.w3.org/2000/svg">
<g clip-path="url(#clip0_1_3702)">
<path d="M23.3195 21.7315L17.2402 15.6522C18.701 13.8983 19.4296 11.6487 19.2741 9.37143C19.1186 7.09414 18.0913 4.96445 16.4055 3.42539C14.7199 1.88633 12.5058 1.0564 10.2237 1.10825C7.94174 1.1601 5.76758 2.08974 4.15354 3.70377C2.53951 5.31781 1.60987 7.49197 1.55802 9.774C1.50617 12.056 2.3361 14.2701 3.87516 15.9558C5.41422 17.6415 7.5439 18.6689 9.8212 18.8243C12.0985 18.9798 14.3481 18.2513 16.1019 16.7904L22.1812 22.8697L23.3195 21.7315ZM3.19451 9.98974C3.19451 8.55682 3.61942 7.15607 4.41552 5.96463C5.2116 4.77321 6.34312 3.84459 7.66697 3.29624C8.99083 2.74788 10.4475 2.60441 11.8529 2.88396C13.2583 3.1635 14.5493 3.85353 15.5625 4.86675C16.5757 5.87998 17.2657 7.17092 17.5453 8.57631C17.8248 9.98173 17.6814 11.4385 17.133 12.7622C16.5847 14.0861 15.656 15.2176 14.4646 16.0137C13.2732 16.8099 11.8724 17.2347 10.4395 17.2347C8.51867 17.2326 6.67712 16.4687 5.31888 15.1104C3.96063 13.7522 3.19665 11.9106 3.19451 9.98974Z" fill="black"/>
</g>
<defs>
<clipPath id="clip0_1_3702">
<rect width="23" height="23" fill="white" transform="translate(0.894531 0.444824)"/>
</clipPath>
</defs>
</svg>
