<svg width="29" height="29" viewBox="0 0 29 29" fill="none" xmlns="http://www.w3.org/2000/svg">
<g clip-path="url(#clip0_133_451)">
<path d="M7.57031 7.5H21.5703V21.5H7.57031V7.5Z" fill="white"/>
<path d="M20.3671 10.4574C20.1232 10.2128 19.8335 10.0186 19.5144 9.88619C19.1954 9.75373 18.8534 9.68555 18.5079 9.68555C18.1625 9.68555 17.8204 9.75373 17.5014 9.88619C17.1823 10.0186 16.8926 10.2128 16.6487 10.4574L17.2696 11.079C17.4314 10.9115 17.625 10.7779 17.839 10.686C18.0529 10.5941 18.2831 10.5457 18.516 10.5437C18.7489 10.5417 18.9798 10.5861 19.1954 10.6742C19.4109 10.7624 19.6068 10.8926 19.7715 11.0573C19.9362 11.2219 20.0664 11.4177 20.1547 11.6333C20.2429 11.8488 20.2873 12.0797 20.2854 12.3126C20.2834 12.5455 20.2351 12.7757 20.1433 12.9897C20.0514 13.2037 19.9179 13.3973 19.7504 13.5591L16.2504 17.0591C15.9199 17.3775 15.4777 17.5535 15.0189 17.5494C14.56 17.5454 14.121 17.3615 13.7962 17.0374C13.4714 16.7132 13.2867 16.2746 13.2817 15.8157C13.2768 15.3569 13.4519 14.9144 13.7696 14.5832L14.3863 13.9616L13.7703 13.3407L13.1487 13.9616C12.9039 14.2055 12.7097 14.4953 12.5772 14.8144C12.4447 15.1335 12.3765 15.4757 12.3765 15.8212C12.3765 16.1667 12.4447 16.5088 12.5772 16.828C12.7097 17.1471 12.9039 17.4369 13.1487 17.6807C13.6437 18.1693 14.3124 18.4415 15.0079 18.4374C15.3548 18.4389 15.6984 18.3716 16.0191 18.2394C16.3398 18.1073 16.6311 17.9129 16.8762 17.6674L20.3762 14.1674C20.8666 13.674 21.1411 13.0062 21.1394 12.3106C21.1376 11.6149 20.8599 10.9484 20.3671 10.4574Z" fill="black"/>
<path d="M9.40381 18.3584C9.24052 18.1958 9.11096 18.0026 9.02255 17.7898C8.93414 17.577 8.88863 17.3488 8.88863 17.1184C8.88863 16.8879 8.93414 16.6598 9.02255 16.447C9.11096 16.2342 9.24052 16.0409 9.40381 15.8783L12.9038 12.3783C13.0664 12.215 13.2597 12.0855 13.4725 11.9971C13.6853 11.9086 13.9134 11.8631 14.1439 11.8631C14.3743 11.8631 14.6025 11.9086 14.8153 11.9971C15.0281 12.0855 15.2213 12.215 15.3839 12.3783C15.5462 12.5421 15.674 12.7367 15.7597 12.9508C15.8454 13.1648 15.8874 13.3938 15.883 13.6243C15.8844 13.8557 15.8399 14.0852 15.7521 14.2993C15.6643 14.5134 15.5348 14.708 15.3713 14.8717L14.4438 15.8125L15.0647 16.4334L15.9922 15.5059C16.4858 15.0123 16.763 14.3428 16.7629 13.6447C16.7629 12.9467 16.4855 12.2772 15.9919 11.7837C15.4982 11.2901 14.8287 11.0129 14.1307 11.0129C13.4326 11.013 12.7632 11.2904 12.2696 11.784L8.76961 15.284C8.52431 15.528 8.32965 15.818 8.19682 16.1374C8.06399 16.4568 7.99561 16.7994 7.99561 17.1453C7.99561 17.4913 8.06399 17.8338 8.19682 18.1532C8.32965 18.4727 8.52431 18.7627 8.76961 19.0066C9.26781 19.4914 9.93795 19.7587 10.633 19.75C11.3344 19.7507 12.0075 19.4739 12.5055 18.98L11.8846 18.3584C11.722 18.5219 11.5288 18.6516 11.3159 18.7401C11.103 18.8287 10.8748 18.8742 10.6442 18.8742C10.4137 18.8742 10.1854 18.8287 9.97252 18.7401C9.75965 18.6516 9.56637 18.5219 9.40381 18.3584Z" fill="black"/>
</g>
<rect x="1.07031" y="1" width="27" height="27" rx="13.5" stroke="black" stroke-opacity="0.06"/>
<defs>
<clipPath id="clip0_133_451">
<rect width="14" height="14" fill="white" transform="translate(7.57031 7.5)"/>
</clipPath>
</defs>
</svg>
