<svg width="29" height="29" viewBox="0 0 29 29" fill="none" xmlns="http://www.w3.org/2000/svg">
<g clip-path="url(#clip0_133_445)">
<path d="M17.6175 9.40914C17.965 9.40884 18.309 9.47793 18.6295 9.61233C18.9499 9.74674 19.2403 9.94377 19.4836 10.1919C19.9849 10.7008 20.2659 11.3866 20.2659 12.101C20.2659 12.8154 19.9849 13.5011 19.4836 14.01L14.5391 19.0166L9.59452 14.01C9.09318 13.5011 8.81217 12.8154 8.81217 12.101C8.81217 11.3866 9.09318 10.7008 9.59452 10.1919C9.83797 9.94395 10.1284 9.74702 10.4488 9.61259C10.7692 9.47817 11.1132 9.40893 11.4607 9.40893C11.8081 9.40893 12.1521 9.47817 12.4725 9.61259C12.7929 9.74702 13.0833 9.94395 13.3268 10.1919L14.5391 11.4328L15.7466 10.2014C15.9891 9.95036 16.2798 9.7508 16.6013 9.61467C16.9227 9.47854 17.2684 9.40863 17.6175 9.40914ZM17.6175 8.45459C17.1429 8.45419 16.673 8.54854 16.2353 8.73213C15.7977 8.91571 15.4011 9.18482 15.0688 9.52368L14.5391 10.0582L14.0093 9.52368C13.6766 9.18543 13.2799 8.91679 12.8424 8.73341C12.4048 8.55003 11.9351 8.45559 11.4607 8.45559C10.9862 8.45559 10.5165 8.55003 10.079 8.73341C9.64139 8.91679 9.2447 9.18543 8.91202 9.52368C8.23519 10.2127 7.85596 11.1399 7.85596 12.1057C7.85596 13.0716 8.23519 13.9988 8.91202 14.6878L14.5391 20.3864L20.1661 14.6878C20.8429 13.9988 21.2221 13.0716 21.2221 12.1057C21.2221 11.1399 20.8429 10.2127 20.1661 9.52368C19.8335 9.18525 19.4368 8.91642 18.9993 8.73287C18.5617 8.54932 18.092 8.45472 17.6175 8.45459Z" fill="#808080"/>
</g>
<rect x="1.03906" y="1" width="27" height="27" rx="13.5" stroke="black" stroke-opacity="0.06"/>
<defs>
<clipPath id="clip0_133_445">
<rect width="14" height="12.0909" fill="white" transform="translate(7.53906 8.45459)"/>
</clipPath>
</defs>
</svg>
