<svg width="17" height="18" viewBox="0 0 17 18" fill="none" xmlns="http://www.w3.org/2000/svg">
<g id="moon.svg">
<path id="Vector" d="M6.90648 3.707C6.67721 4.68568 6.64602 5.70034 6.81476 6.69126C6.98349 7.68218 7.34873 8.62933 7.88898 9.47698C8.42924 10.3246 9.13359 11.0557 9.96058 11.627C10.7876 12.1984 11.7205 12.5986 12.7045 12.804C12.1872 13.3393 11.5676 13.7651 10.8825 14.0563C10.1975 14.3475 9.46086 14.498 8.71648 14.499C8.64748 14.499 8.57748 14.501 8.50748 14.499C7.21166 14.4533 5.97279 13.9552 5.00608 13.0911C4.03936 12.227 3.4059 11.0515 3.21575 9.76893C3.02559 8.48634 3.29076 7.17765 3.96518 6.07024C4.6396 4.96282 5.67965 4.12665 6.90648 3.707ZM7.64648 2.5C7.61696 2.50007 7.58752 2.50275 7.55848 2.508C5.96726 2.79179 4.53724 3.65408 3.5436 4.92891C2.54997 6.20374 2.06296 7.80103 2.17628 9.41337C2.2896 11.0257 2.99526 12.5392 4.15744 13.6625C5.31963 14.7858 6.85621 15.4396 8.47148 15.498C8.55347 15.502 8.63548 15.498 8.71648 15.498C9.76582 15.4987 10.7999 15.2467 11.7313 14.7633C12.6627 14.2799 13.464 13.5794 14.0675 12.721C14.1165 12.647 14.1451 12.5614 14.1505 12.4729C14.1559 12.3843 14.1379 12.2959 14.0983 12.2165C14.0586 12.1371 13.9988 12.0696 13.9247 12.0207C13.8507 11.9718 13.7651 11.9433 13.6765 11.938C12.6777 11.8503 11.7124 11.5341 10.8552 11.0139C9.99811 10.4937 9.27205 9.7834 8.7332 8.93785C8.19434 8.09231 7.85711 7.13419 7.74757 6.13754C7.63804 5.14089 7.75912 4.13239 8.10148 3.19C8.13049 3.11456 8.14109 3.03329 8.13238 2.95293C8.12368 2.87258 8.09593 2.79546 8.05143 2.72798C8.00694 2.66051 7.94698 2.60462 7.87655 2.56497C7.80612 2.52532 7.72724 2.50305 7.64648 2.5Z" fill="black" fill-opacity="0.8"/>
</g>
</svg>
