<svg width="16" height="16" viewBox="0 0 16 16" fill="none" xmlns="http://www.w3.org/2000/svg">
<g id="note">
<path id="Vector" d="M1.6001 12.0543L1.60024 4.41467C1.60025 3.84509 2.15186 3.43835 2.696 3.60669C4.47733 4.15781 6.40319 4.15781 8.18452 3.60669C10.1317 3.00426 12.246 3.06192 14.1517 3.76945L14.4002 3.86171L14.4001 12.3833C14.4001 12.5117 14.272 12.6008 14.1516 12.5561C12.2458 11.8486 10.1316 11.7909 8.18436 12.3933C6.40303 12.9444 4.47716 12.9444 2.69583 12.3933L1.6001 12.0543Z" stroke="black" stroke-width="1.5" stroke-linejoin="round"/>
<path id="Vector_2" d="M9.5999 7.99331C9.5999 8.87696 8.88355 9.59331 7.9999 9.59331C7.11624 9.59331 6.3999 8.87696 6.3999 7.99331C6.3999 7.10965 7.11624 6.39331 7.9999 6.39331C8.88355 6.39331 9.5999 7.10965 9.5999 7.99331Z" stroke="black" stroke-width="1.5" stroke-linejoin="round"/>
</g>
</svg>
