<?xml version="1.0" encoding="utf-8"?>
<!-- Generator: Adobe Illustrator 25.3.0, SVG Export Plug-In . SVG Version: 6.00 Build 0)  -->
<svg version="1.1" id="Layer_1" xmlns="http://www.w3.org/2000/svg" xmlns:xlink="http://www.w3.org/1999/xlink" x="0px" y="0px"
	 viewBox="0 0 17 17"  xml:space="preserve">
<path class="st0" fill="#808080" d="M6.6,8.7c-0.5-0.5-0.5-1.4,0-1.9c0.5-0.5,1.3-0.5,1.8,0l0,0l0,0c0.5-0.5,1.4-0.5,1.9,0c0.5,0.5,0.5,1.3,0,1.8
	l-1.9,1.9l0,0l0,0L6.6,8.7L6.6,8.7z"/>
<path class="st1" fill-rule="evenodd" clip-rule="evenodd" fill="#808080" d="M2.5,3.2c0-1.1,0.9-2,2-2h8c1.1,0,2,0.9,2,2v10.7c0,1.1-0.9,2-2,2h-8c-1.1,0-2-0.9-2-2V3.2z M4.5,2.5h8
	c0.4,0,0.7,0.3,0.7,0.7v10.7c0,0.4-0.3,0.7-0.7,0.7h-8c-0.4,0-0.7-0.3-0.7-0.7V3.2C3.8,2.8,4.1,2.5,4.5,2.5L4.5,2.5z"/>
</svg>
