<?xml version="1.0" encoding="utf-8"?>
<!-- Generator: Adobe Illustrator 25.3.0, SVG Export Plug-In . SVG Version: 6.00 Build 0)  -->
<svg version="1.1" id="Layer_1" xmlns="http://www.w3.org/2000/svg" xmlns:xlink="http://www.w3.org/1999/xlink" x="0px" y="0px"
	 viewBox="0 0 16 16" style="enable-background:new 0 0 16 16;" xml:space="preserve">
<path class="st0" fill="none" stroke="#808080" stroke-width="1.5" stroke-linejoin="round" d="M1.6,12.1l0-7.6c0-0.6,0.6-1,1.1-0.8l0,0c1.8,0.6,3.7,0.6,5.5,0c1.9-0.6,4.1-0.5,6,0.2l0.2,0.1l0,8.5
	c0,0.1-0.1,0.2-0.2,0.2l0,0c-1.9-0.7-4-0.8-6-0.2c-1.8,0.6-3.7,0.6-5.5,0L1.6,12.1z"/>
<path class="st0" fill="none" stroke="#808080" stroke-width="1.5" stroke-linejoin="round" d="M9.6,8c0,0.9-0.7,1.6-1.6,1.6C7.1,9.6,6.4,8.9,6.4,8c0-0.9,0.7-1.6,1.6-1.6C8.9,6.4,9.6,7.1,9.6,8z"/>
</svg>