<svg width="17" height="18" viewBox="0 0 17 18" fill="none" xmlns="http://www.w3.org/2000/svg">
<g id="tea.svg">
<path id="Vector" d="M1.15625 15H15.1562V16H1.15625V15ZM12.4062 6.5H4.15625C3.89103 6.5 3.63668 6.60536 3.44914 6.79289C3.26161 6.98043 3.15625 7.23478 3.15625 7.5V11.5C3.15704 12.1628 3.42069 12.7982 3.88936 13.2669C4.35803 13.7356 4.99345 13.9992 5.65625 14H9.65625C10.319 13.9992 10.9545 13.7356 11.4231 13.2669C11.8918 12.7982 12.1555 12.1628 12.1562 11.5V11H12.4062C13.003 11 13.5753 10.7629 13.9972 10.341C14.4192 9.91903 14.6562 9.34674 14.6562 8.75C14.6562 8.15326 14.4192 7.58097 13.9972 7.15901C13.5753 6.73705 13.003 6.5 12.4062 6.5ZM11.1562 11.5C11.1557 11.8977 10.9975 12.2789 10.7163 12.5601C10.4351 12.8413 10.0539 12.9995 9.65625 13H5.65625C5.25859 12.9995 4.87736 12.8413 4.59617 12.5601C4.31498 12.2789 4.15678 11.8977 4.15625 11.5V7.5H11.1562V11.5ZM12.4062 10H12.1562V7.5H12.4062C12.7378 7.5 13.0557 7.6317 13.2901 7.86612C13.5246 8.10054 13.6562 8.41848 13.6562 8.75C13.6562 9.08152 13.5246 9.39946 13.2901 9.63388C13.0557 9.8683 12.7378 10 12.4062 10ZM9.65625 5.5H8.65625V5.427C8.65684 5.24119 8.60535 5.05894 8.5076 4.90092C8.40985 4.7429 8.26977 4.61544 8.10325 4.533L6.76125 3.862C6.42839 3.69673 6.14846 3.44155 5.95316 3.12537C5.75787 2.80918 5.65501 2.44463 5.65625 2.073V1.5H6.65625V2.073C6.65577 2.25878 6.70732 2.44099 6.80505 2.59899C6.90278 2.75699 7.0428 2.88447 7.20925 2.967L8.55125 3.638C8.88411 3.80327 9.16404 4.05845 9.35934 4.37463C9.55463 4.69082 9.65749 5.05537 9.65625 5.427V5.5Z" fill="black" fill-opacity="0.8"/>
</g>
</svg>
