<svg width="17" height="18" viewBox="0 0 17 18" fill="none" xmlns="http://www.w3.org/2000/svg">
<g id="tel.svg">
<path id="Vector" d="M10.3211 11.74L11.4411 10.62C11.592 10.4712 11.7828 10.3692 11.9905 10.3266C12.1982 10.284 12.4137 10.3026 12.6111 10.38L13.9761 10.925C14.1755 11.006 14.3465 11.1441 14.4675 11.3221C14.5885 11.5 14.6541 11.7098 14.6561 11.925V14.425C14.6551 14.5715 14.6244 14.7162 14.5659 14.8504C14.5074 14.9847 14.4223 15.1057 14.3158 15.2061C14.2093 15.3066 14.0835 15.3844 13.946 15.4349C13.8086 15.4854 13.6623 15.5076 13.5161 15.5C3.95107 14.905 2.02107 6.80502 1.65607 3.70502C1.63913 3.55279 1.65461 3.39869 1.7015 3.25288C1.74838 3.10706 1.82561 2.97282 1.92811 2.85899C2.0306 2.74516 2.15603 2.65432 2.29615 2.59245C2.43627 2.53058 2.5879 2.49908 2.74107 2.50002H5.15607C5.37158 2.50066 5.58196 2.56575 5.76017 2.68694C5.93838 2.80812 6.07626 2.97984 6.15607 3.18002L6.70107 4.54502C6.7812 4.74155 6.80164 4.95734 6.75985 5.16543C6.71805 5.37351 6.61587 5.56467 6.46607 5.71502L5.34607 6.83502C5.34607 6.83502 5.99107 11.2 10.3211 11.74Z" fill="black" fill-opacity="0.8"/>
</g>
</svg>
